# xmcd
# Copyright (C) 1995-1998 Ti Kan
#
# Track frame offsets:
#       150
#       14885
#       33552
#       52628
#       71231
#       87213
#       100242
#       116652
#       135543
#       157330
#       174945
#       191740
#       207089
#
# Disc length: 2987 seconds
#
# Revision: 0
# Processed by: cddbd v1.5.2PL0 Copyright (c) Steve Scherf et al.
# Submitted via: CD-Import v1.0
#
DISCID=b60ba90d
DTITLE=Wind Of Change - Escape
DYEAR=07
DGENRE=
TTITLE0=You Made Me Crazy
TTITLE1=Stop Fighting
TTITLE2=Drive
TTITLE3=Stay Away
TTITLE4=So Many
TTITLE5=Cloudy Island
TTITLE6=Crystal Splinter
TTITLE7=Knock Down The Wall
TTITLE8=Just Another Day
TTITLE9=Alone
TTITLE10=Midnight
TTITLE11=Day After Day
TTITLE12=Until We Die
EXTD=
EXTT0=
EXTT1=
EXTT2=
EXTT3=
EXTT4=
EXTT5=
EXTT6=
EXTT7=
EXTT8=
EXTT9=
EXTT10=
EXTT11=
EXTT12=
PLAYORDER=
